<svg width="15" height="185" viewBox="0 0 15 185" fill="none" xmlns="http://www.w3.org/2000/svg">
<g clip-path="url(#clip0_478_67)">
<path d="M3 0.113249L0.113249 3L3 5.88675L5.88675 3L3 0.113249ZM2.5 3C2.5 62.3597 2.5 111.5 2.5 132H3.5C3.5 111.5 3.5 62.3597 3.5 3H2.5ZM2.5 132C2.5 142.353 5.66157 147.404 8.95258 149.839C10.5872 151.049 12.2232 151.589 13.452 151.827C14.0664 151.946 14.5805 151.989 14.9443 152.003C15.1263 152.009 15.271 152.009 15.3723 152.006C15.4229 152.005 15.4627 152.003 15.4909 152.002C15.505 152.001 15.5162 152 15.5244 152C15.5285 151.999 15.5318 151.999 15.5344 151.999C15.5357 151.999 15.5368 151.999 15.5377 151.999C15.5382 151.999 15.5387 151.998 15.5389 151.998C15.5394 151.998 15.5399 151.998 15.5 151.5C15.4601 151.002 15.4605 151.002 15.4608 151.002C15.4608 151.002 15.4611 151.002 15.4611 151.002C15.4613 151.002 15.4613 151.002 15.4611 151.002C15.4606 151.002 15.4594 151.002 15.4575 151.002C15.4537 151.002 15.447 151.002 15.4374 151.003C15.4183 151.004 15.3879 151.005 15.347 151.006C15.2651 151.008 15.1412 151.009 14.9814 151.003C14.6617 150.991 14.1992 150.953 13.6418 150.845C12.5268 150.629 11.0378 150.138 9.54742 149.036C6.58843 146.846 3.5 142.147 3.5 132H2.5Z" fill="black"/>
</g>
<defs>
<clipPath id="clip0_478_67">
<rect width="15" height="185" fill="white"/>
</clipPath>
</defs>
</svg>
